<?xml version="1.0" standalone="no"?>
<!DOCTYPE svg PUBLIC "-//W3C//DTD SVG 20010904//EN"
 "http://www.w3.org/TR/2001/REC-SVG-20010904/DTD/svg10.dtd">
<svg version="1.0" xmlns="http://www.w3.org/2000/svg"
 width="1533.000000pt" height="1535.000000pt" viewBox="0 0 1533.000000 1535.000000"
 preserveAspectRatio="xMidYMid meet">

<g transform="translate(0.000000,1535.000000) scale(0.100000,-0.100000)"
fill="#000000" stroke="none">
<path d="M7640 15343 c-96 -16 -209 -88 -258 -163 -49 -75 -62 -147 -62 -361
0 -167 -2 -188 -18 -202 -13 -12 -52 -20 -123 -28 -204 -20 -341 -44 -514 -86
-55 -14 -120 -29 -145 -34 -25 -5 -56 -13 -70 -18 -14 -4 -50 -15 -80 -24
-122 -36 -301 -97 -365 -126 -11 -5 -45 -19 -75 -31 -282 -112 -618 -300 -907
-509 -235 -170 -351 -272 -603 -527 -172 -175 -254 -267 -346 -389 -392 -522
-614 -974 -799 -1630 -20 -71 -71 -313 -89 -425 -34 -209 -39 -279 -43 -615
-5 -360 6 -552 42 -745 8 -41 22 -115 31 -165 52 -288 191 -719 324 -1010 61
-133 180 -370 245 -490 36 -65 63 -125 61 -131 -2 -7 -45 -32 -95 -57 -122
-62 -188 -111 -306 -231 -145 -146 -219 -267 -271 -443 -22 -75 -27 -115 -33
-270 -6 -158 -9 -184 -25 -202 -19 -20 -166 -120 -526 -356 -214 -140 -416
-273 -725 -477 -226 -149 -264 -178 -391 -301 -204 -197 -291 -309 -384 -494
-86 -171 -134 -337 -165 -567 -7 -55 -25 -168 -39 -250 -14 -82 -26 -164 -26
-182 0 -17 -6 -65 -14 -105 -8 -41 -22 -126 -31 -189 -9 -63 -26 -169 -37
-235 -11 -66 -26 -160 -33 -210 -8 -49 -23 -144 -34 -210 -11 -66 -25 -154
-30 -195 -4 -41 -20 -149 -35 -240 -25 -161 -38 -248 -72 -475 -9 -60 -25
-164 -36 -230 -11 -66 -26 -164 -33 -218 -8 -54 -25 -173 -40 -265 -14 -92
-33 -214 -41 -272 -9 -58 -22 -132 -29 -165 -8 -33 -16 -72 -19 -86 -5 -23
-12 -27 -58 -33 -90 -11 -161 -43 -216 -97 -68 -67 -94 -124 -100 -219 -8
-136 39 -242 138 -309 75 -50 99 -52 565 -49 428 3 430 3 482 27 61 27 116 84
146 150 32 68 31 237 -1 301 -36 72 -145 178 -200 195 -20 6 -23 12 -18 33 3
15 11 65 16 112 6 47 17 126 25 175 31 194 65 402 75 450 5 28 19 109 30 180
57 364 86 505 107 520 28 21 115 51 268 90 77 20 181 50 230 65 50 16 143 43
208 60 65 17 153 42 195 56 42 14 138 41 212 60 74 20 176 49 225 65 50 15
149 44 220 63 72 19 191 53 265 75 74 21 182 52 240 68 l105 28 1865 0 c1026
0 1877 -3 1893 -8 l27 -7 -2 -1036 c-3 -1136 2 -1053 -63 -1054 -79 -1 -199
-91 -246 -187 -20 -41 -24 -62 -24 -148 1 -88 4 -106 27 -150 33 -64 98 -128
157 -157 46 -23 48 -23 496 -23 l450 0 47 23 c60 30 131 101 160 161 17 34 24
69 26 130 5 106 -16 172 -74 239 -47 53 -146 112 -190 112 -63 0 -59 -80 -62
1054 -2 979 -1 1034 15 1042 10 5 864 10 1897 12 1874 2 1879 2 1960 -18 78
-20 289 -80 426 -120 62 -18 308 -89 528 -151 195 -56 317 -91 367 -106 28 -8
73 -21 100 -28 28 -8 97 -27 155 -44 58 -16 177 -50 265 -74 178 -50 268 -82
283 -100 5 -7 17 -57 26 -112 9 -55 26 -149 36 -210 11 -60 24 -141 30 -180 6
-38 17 -104 25 -145 7 -41 21 -122 30 -180 9 -58 23 -136 30 -175 8 -38 21
-117 29 -175 8 -58 20 -142 26 -187 7 -45 9 -86 6 -91 -3 -5 -18 -12 -33 -15
-41 -9 -140 -91 -174 -145 -41 -65 -52 -113 -47 -212 3 -61 10 -97 26 -127 32
-61 100 -129 157 -155 50 -23 54 -23 519 -26 462 -3 469 -2 510 19 22 11 58
39 79 60 l39 39 -4 183 c-2 150 -6 188 -20 214 -44 79 -140 136 -262 154 l-76
11 -11 42 c-5 22 -13 49 -15 59 -3 10 -12 59 -19 110 -14 95 -23 149 -56 352
-20 116 -38 234 -79 515 -11 74 -28 182 -36 240 -9 58 -20 121 -24 140 -5 19
-14 72 -20 117 -5 46 -15 120 -20 165 -6 46 -17 117 -25 158 -7 41 -18 113
-24 160 -7 47 -20 132 -31 190 -28 146 -68 402 -76 480 -7 80 -43 310 -49 320
-4 6 -8 40 -34 245 -6 44 -17 118 -25 165 -8 47 -22 130 -31 185 -59 366 -217
669 -489 940 -137 136 -168 159 -658 481 -216 142 -369 242 -587 384 -296 194
-424 284 -444 312 -17 23 -21 51 -28 200 -8 199 -20 255 -79 393 -64 150 -195
316 -330 420 -60 45 -214 138 -247 149 -12 4 -27 14 -34 22 -12 15 1 45 106
234 51 94 152 301 240 495 23 50 62 147 78 195 9 25 25 70 37 100 17 46 56
177 90 305 36 133 60 234 74 315 9 52 23 129 31 170 31 166 40 318 40 665 0
347 -10 517 -40 670 -7 39 -16 93 -20 120 -23 176 -178 700 -277 935 -146 344
-330 662 -571 985 -134 179 -190 241 -442 492 -190 189 -262 253 -413 366
-289 218 -452 322 -693 443 -80 41 -149 74 -152 74 -3 0 -43 17 -89 39 -266
124 -700 263 -942 301 -38 6 -72 12 -75 14 -8 5 -208 33 -326 46 -61 6 -105
16 -116 26 -14 12 -17 46 -22 217 -7 272 -23 325 -120 413 -71 65 -188 109
-257 97z m550 -1428 c174 -24 383 -66 520 -105 88 -25 276 -86 305 -100 11 -5
81 -34 155 -66 185 -77 309 -140 485 -246 297 -177 461 -305 720 -563 275
-274 408 -443 596 -760 116 -196 144 -248 209 -401 152 -353 210 -551 284
-964 29 -161 41 -336 41 -595 0 -310 -20 -536 -69 -765 -8 -36 -22 -101 -31
-145 -65 -308 -228 -711 -423 -1045 -100 -173 -248 -386 -321 -462 l-35 -38
-2957 0 -2956 0 -55 58 c-110 116 -324 453 -442 697 -112 230 -234 563 -281
765 -14 58 -29 121 -35 140 -16 60 -38 227 -56 415 -20 215 -15 654 10 855 51
415 174 834 351 1193 323 657 787 1175 1410 1574 136 88 317 187 421 231 28
12 80 35 115 51 178 81 493 185 650 215 440 82 472 85 949 80 223 -2 361 -8
440 -19z m3076 -6962 c74 -25 145 -76 181 -132 67 -101 63 -3 63 -1742 0 -868
-3 -1584 -6 -1593 -6 -15 -353 -16 -3834 -16 -3481 0 -3828 1 -3834 16 -3 9
-6 730 -6 1603 0 1419 2 1593 16 1641 34 116 106 187 228 225 33 11 723 13
3592 14 3274 1 3554 0 3600 -16z m-8131 -1455 c9 -115 2 -1604 -8 -1614 -12
-12 -68 22 -160 95 -45 37 -111 88 -147 116 -36 27 -110 86 -165 131 -96 79
-395 318 -520 416 -33 26 -87 71 -119 101 l-60 54 25 24 c61 58 111 94 457
326 513 343 653 432 684 433 3 0 9 -37 13 -82z m9150 54 c102 -55 1041 -690
1061 -718 51 -71 54 -64 -59 -154 -128 -102 -172 -136 -381 -296 -497 -380
-663 -503 -677 -504 -33 0 -39 125 -39 864 0 703 5 837 34 836 6 -1 34 -13 61
-28z m-10578 -1436 c32 -19 67 -43 78 -53 11 -11 78 -64 149 -119 151 -116
291 -226 441 -344 59 -47 142 -111 183 -142 41 -31 98 -80 126 -109 59 -60 68
-50 -94 -98 -58 -17 -125 -38 -150 -45 -74 -22 -149 -44 -260 -76 -58 -17
-127 -37 -155 -45 -154 -46 -358 -104 -415 -119 -36 -10 -87 -24 -113 -33 -32
-10 -52 -12 -58 -6 -11 11 17 248 47 408 8 44 21 123 29 175 8 52 26 160 40
239 14 80 25 158 25 175 0 65 47 226 66 226 1 0 29 -15 61 -34z m12012 -43 c5
-21 17 -85 26 -143 23 -147 43 -271 60 -365 35 -199 45 -257 60 -355 8 -58 23
-147 31 -198 18 -104 15 -127 -19 -119 -29 6 -197 52 -427 117 -102 29 -198
56 -215 60 -16 5 -52 15 -80 23 -27 8 -90 27 -140 41 -49 15 -161 50 -248 77
l-157 51 33 37 c18 20 39 45 47 57 8 11 116 96 240 189 124 93 272 207 330
255 202 166 401 309 432 309 12 1 20 -11 27 -36z"/>
<path d="M7575 13216 c-59 -18 -83 -33 -138 -85 -79 -74 -92 -107 -92 -236 0
-130 13 -162 94 -238 140 -131 322 -131 461 -1 76 71 93 117 94 244 0 114 -11
149 -70 220 -76 89 -232 133 -349 96z"/>
<path d="M7355 11820 c-150 -28 -266 -66 -420 -138 -210 -97 -326 -180 -510
-366 -152 -152 -218 -242 -308 -416 -132 -259 -177 -457 -177 -788 0 -388 64
-622 251 -929 201 -328 538 -597 906 -723 232 -80 260 -84 568 -84 259 -1 287
1 374 22 210 52 375 120 551 227 129 78 192 129 306 243 283 284 444 609 493
993 16 125 14 386 -5 519 -26 188 -68 328 -148 488 -98 198 -179 309 -345 472
-221 217 -415 331 -739 436 -150 48 -203 54 -489 53 -147 -1 -286 -5 -308 -9z
m565 -696 c329 -66 619 -321 739 -650 99 -271 75 -616 -61 -872 -109 -206
-319 -393 -530 -474 -139 -53 -193 -61 -398 -61 -203 0 -250 7 -380 54 -240
88 -451 278 -564 509 -82 168 -106 274 -106 476 0 194 28 322 103 468 140 272
388 476 662 544 123 30 398 33 535 6z"/>
<path d="M4454 10441 c-100 -25 -204 -116 -237 -207 -24 -69 -23 -197 3 -266
33 -89 111 -158 205 -183 85 -22 822 -22 905 0 165 44 259 212 221 396 -23
109 -80 182 -180 232 l-66 32 -410 2 c-225 1 -424 -2 -441 -6z"/>
<path d="M10034 10441 c-104 -26 -205 -116 -238 -213 -26 -77 -20 -214 12
-279 31 -64 85 -117 151 -148 l56 -26 423 -3 c370 -3 431 -1 480 13 91 27 158
86 200 175 25 56 23 241 -4 301 -32 68 -76 112 -151 150 l-68 34 -415 2 c-228
1 -429 -2 -446 -6z"/>
<path d="M4747 6236 c-93 -34 -175 -124 -197 -218 -14 -63 -12 -157 5 -214 32
-107 131 -194 252 -219 104 -22 5624 -22 5727 0 188 40 290 197 257 396 -6 39
-20 87 -30 107 -25 48 -84 104 -141 133 l-45 24 -2895 2 c-2419 2 -2901 0
-2933 -11z"/>
<path d="M4830 4860 c-96 -17 -215 -108 -260 -197 -21 -41 -25 -62 -25 -143 0
-81 4 -102 25 -143 37 -73 82 -119 146 -152 51 -26 69 -30 144 -30 47 0 107 6
133 14 61 18 147 94 177 156 44 91 35 260 -18 344 -65 104 -211 172 -322 151z"/>
<path d="M6222 4859 c-170 -33 -282 -166 -282 -334 0 -132 68 -248 178 -302
50 -25 68 -28 152 -28 81 0 103 4 150 26 114 54 182 154 188 277 5 92 -11 150
-58 213 -84 112 -214 171 -328 148z"/>
<path d="M9011 4859 c-71 -14 -132 -49 -193 -111 -48 -49 -61 -69 -79 -129
-16 -54 -20 -84 -15 -126 14 -116 89 -221 196 -272 47 -22 68 -26 150 -26 104
1 155 17 218 70 65 54 112 163 112 255 0 56 -28 149 -58 194 -70 103 -216 168
-331 145z"/>
<path d="M10414 4861 c-101 -17 -215 -104 -254 -197 -26 -60 -27 -219 -2 -280
53 -128 190 -204 345 -191 110 9 186 54 242 142 60 93 67 234 17 331 -67 131
-218 215 -348 195z"/>
<path d="M7565 4847 c-59 -22 -141 -84 -172 -131 -45 -66 -56 -115 -51 -223 6
-108 28 -154 107 -225 61 -55 118 -73 231 -73 73 0 94 5 142 28 62 30 115 83
150 149 19 37 22 58 22 148 0 90 -3 111 -23 148 -34 66 -93 125 -158 158 -48
24 -72 29 -138 31 -44 1 -93 -3 -110 -10z"/>
</g>
</svg>
