<?xml version="1.0" standalone="no"?>
<!DOCTYPE svg PUBLIC "-//W3C//DTD SVG 20010904//EN"
 "http://www.w3.org/TR/2001/REC-SVG-20010904/DTD/svg10.dtd">
<svg version="1.0" xmlns="http://www.w3.org/2000/svg"
 width="840.000000pt" height="592.000000pt" viewBox="0 0 840.000000 592.000000"
 preserveAspectRatio="xMidYMid meet">

<g transform="translate(0.000000,592.000000) scale(0.100000,-0.100000)"
fill="#000000" stroke="none">
<path d="M5710 5189 c-123 -24 -268 -134 -327 -249 l-29 -55 -438 -3 -438 -2
-40 45 c-118 134 -311 150 -440 36 -151 -132 -152 -347 -3 -479 l45 -40 0
-340 0 -340 -117 -3 c-105 -4 -124 -7 -175 -32 -55 -27 -148 -115 -148 -141 0
-6 -8 -24 -17 -41 -14 -25 -18 -64 -21 -227 l-4 -198 642 0 642 0 -4 198 c-3
176 -6 202 -25 244 -30 66 -96 133 -161 165 -48 24 -70 28 -174 31 l-118 4 0
338 0 338 61 61 61 61 436 -2 436 -3 30 -58 c45 -88 152 -184 246 -222 l75
-30 298 -3 c288 -3 299 -3 342 18 119 58 122 215 5 277 -42 22 -50 23 -318 23
-303 0 -321 3 -365 64 -17 24 -22 45 -22 96 0 51 5 72 22 96 44 61 62 64 365
64 268 0 276 1 318 23 48 25 90 89 90 137 0 48 -42 112 -90 137 -42 22 -49 23
-319 22 -152 -1 -296 -5 -321 -10z"/>
<path d="M2135 4546 c-31 -13 -95 -79 -95 -97 0 -6 -9 -30 -20 -54 -41 -90
-54 -164 -53 -300 0 -111 4 -143 27 -218 14 -48 42 -118 61 -156 40 -80 136
-204 188 -244 l37 -28 0 -322 0 -323 -71 -12 c-39 -7 -96 -25 -127 -40 -76
-36 -195 -150 -226 -216 -52 -107 -56 -142 -56 -533 0 -228 4 -382 11 -415 28
-133 135 -270 258 -329 56 -28 70 -39 75 -62 3 -16 24 -67 47 -113 58 -118
177 -238 294 -295 104 -50 214 -73 315 -65 97 8 137 19 236 68 65 31 100 57
165 123 80 80 121 141 163 248 l15 37 104 0 105 0 7 -27 c33 -137 184 -312
330 -383 110 -53 154 -63 270 -64 180 -1 313 55 449 191 82 83 142 178 161
256 l7 27 105 0 104 0 15 -38 c44 -111 80 -165 163 -248 68 -68 103 -94 166
-124 112 -54 155 -64 275 -64 179 -1 310 56 446 192 67 67 93 102 124 166 22
45 42 95 46 111 4 25 16 35 67 59 128 60 241 207 267 345 6 29 10 214 10 410
0 461 -9 500 -142 637 -78 81 -151 123 -246 143 -38 8 -572 11 -1832 11
l-1780 0 0 246 0 246 85 -7 c179 -15 381 46 490 146 51 47 69 92 60 146 -6 33
-31 62 -181 209 -96 95 -174 175 -174 179 0 5 40 50 89 100 103 106 122 148
102 214 -15 51 -61 97 -112 112 -68 21 -108 1 -221 -109 l-99 -96 -77 75 c-42
40 -122 118 -177 171 -126 123 -177 146 -250 114z m770 -2895 c107 -61 165
-149 173 -263 6 -105 -16 -173 -79 -242 -73 -80 -122 -101 -239 -101 -112 0
-160 19 -228 89 -64 66 -84 110 -90 198 -7 115 16 177 92 253 78 78 127 96
246 92 66 -3 94 -9 125 -26z m1440 0 c106 -60 165 -149 173 -259 8 -114 -17
-181 -93 -257 -75 -76 -143 -100 -257 -93 -83 6 -130 27 -194 90 -70 68 -89
116 -89 228 0 83 3 103 24 144 33 63 116 138 177 159 71 25 205 18 259 -12z
m1406 12 c81 -26 168 -117 193 -200 25 -81 19 -191 -13 -248 -32 -56 -95 -119
-149 -146 -39 -20 -60 -24 -142 -24 -83 0 -103 3 -144 24 -69 36 -139 116
-161 186 -24 77 -17 194 14 250 43 76 122 142 201 168 35 12 151 6 201 -10z"/>
</g>
</svg>
